<?xml version="1.0" encoding="utf-8"?>
<!-- Generator: Adobe Illustrator 27.7.0, SVG Export Plug-In . SVG Version: 6.00 Build 0)  -->
<svg version="1.1" id="레이어_1" xmlns="http://www.w3.org/2000/svg" xmlns:xlink="http://www.w3.org/1999/xlink" x="0px"
	 y="0px" viewBox="0 0 30 30" style="enable-background:new 0 0 30 30;" xml:space="preserve">
<style type="text/css">
	.st0{fill:#FFFFFF;}
</style>
<g>
	<path class="st0" d="M14.7,23c0.2,0.2,0.5,0.3,0.8,0.3c0.3,0,0.6-0.1,0.8-0.3l6.1-6.1c3.8-3.8,3.8-10,0-13.8
		c-1.8-1.8-4.3-2.8-6.9-2.8c-2.6,0-5,1-6.9,2.8c-3.8,3.8-3.8,10,0,13.8L14.7,23z M12.8,7.4c0.7-0.7,1.7-1.1,2.7-1.1
		c1,0,2,0.4,2.7,1.1c0.7,0.7,1.1,1.7,1.1,2.7c0,1-0.4,2-1.1,2.7c-0.7,0.7-1.7,1.1-2.7,1.1c-1,0-2-0.4-2.7-1.1
		c-0.7-0.7-1.1-1.7-1.1-2.7C11.7,9.1,12.1,8.1,12.8,7.4z"/>
	<path class="st0" d="M25,20.7c0.8,0.6,1.3,1.4,1.3,2.1c0,2.5-4.8,4.6-10.8,4.6s-10.8-2-10.8-4.6c0-0.8,0.5-1.5,1.3-2.1
		c-2.8,0.9-4.6,2.3-4.6,3.8c0,2.8,6.3,5.2,14.1,5.2c7.8,0,14.1-2.3,14.1-5.2C29.6,23,27.8,21.7,25,20.7z"/>
</g>
</svg>
