<?xml version="1.0" encoding="utf-8"?>
<!-- Generator: Adobe Illustrator 27.7.0, SVG Export Plug-In . SVG Version: 6.00 Build 0)  -->
<svg version="1.1" id="레이어_1" xmlns="http://www.w3.org/2000/svg" xmlns:xlink="http://www.w3.org/1999/xlink" x="0px"
	 y="0px" viewBox="0 0 17 17" style="enable-background:new 0 0 17 17;" xml:space="preserve">
<style type="text/css">
	.st0{fill:#FFFFFF;}
</style>
<path class="st0" d="M1.1,9.8L6.3,15c0.7,0.7,1.8,0.7,2.6,0c0.7-0.7,0.7-1.8,0-2.6l-2.1-2.1h7.9c1,0,1.8-0.8,1.8-1.8
	c0-1-0.8-1.8-1.8-1.8H6.7l2.1-2.1c0.7-0.7,0.7-1.8,0-2.6C8.5,1.6,8,1.5,7.6,1.5C7.1,1.5,6.6,1.6,6.3,2L1.1,7.2
	C0.4,7.9,0.4,9.1,1.1,9.8z"/>
</svg>
