<?xml version="1.0" encoding="utf-8"?>
<!-- Generator: Adobe Illustrator 27.7.0, SVG Export Plug-In . SVG Version: 6.00 Build 0)  -->
<svg version="1.1" id="레이어_1" xmlns="http://www.w3.org/2000/svg" xmlns:xlink="http://www.w3.org/1999/xlink" x="0px"
	 y="0px" viewBox="0 0 30 30" style="enable-background:new 0 0 30 30;" xml:space="preserve">
<style type="text/css">
	.st0{fill:#FFFFFF;}
</style>
<g>
	<path class="st0" d="M21.6,24.8c-1.3-0.9-2.6-1.8-3.9-2.6c-1-0.6-1.2-0.6-2,0.3c-1.1,1.1-2.2,1.2-3.5,0.4c-1.9-1.1-3.1-2.8-4.4-4.5
		c-0.9-1.2-0.9-1.9,0.2-3c0.6-0.6,0.7-1.2,0.2-1.9c-1-1.4-2-2.8-3.1-4.2c-0.7-0.9-1.5-1-2.4-0.4c-1.3,0.8-2,2-2,3.5
		c-0.1,1.7,0.4,3.3,1.1,4.8c2.2,4.9,6,8.3,10.7,10.6c1.4,0.7,2.9,1,3.8,1.1c2.4,0.3,4.1-0.5,5.4-1.7C22.7,26.4,22.7,25.6,21.6,24.8z
		"/>
	<path class="st0" d="M17.5,16.7c0,0.6,0.5,1.1,1.1,1.1c0.6,0,1.1-0.5,1.1-1.1c0-3.4-2.8-6.1-6.1-6.1c-0.6,0-1.1,0.5-1.1,1.1
		c0,0.6,0.5,1.1,1.1,1.1C15.8,12.8,17.5,14.6,17.5,16.7z"/>
	<path class="st0" d="M13.6,5.9c-0.6,0-1.1,0.5-1.1,1.1c0,0.6,0.5,1.1,1.1,1.1c4.7,0,8.6,3.8,8.6,8.6c0,0.6,0.5,1.1,1.1,1.1
		c0.6,0,1.1-0.5,1.1-1.1C24.5,10.8,19.6,5.9,13.6,5.9z"/>
	<path class="st0" d="M13.6,0.9c-0.6,0-1.1,0.5-1.1,1.1c0,0.6,0.5,1.1,1.1,1.1c7.5,0,13.6,6.1,13.6,13.6c0,0.6,0.5,1.1,1.1,1.1
		c0.6,0,1.1-0.5,1.1-1.1C29.5,8,22.4,0.9,13.6,0.9z"/>
</g>
</svg>
