<?xml version="1.0" encoding="utf-8"?>
<!-- Generator: Adobe Illustrator 27.7.0, SVG Export Plug-In . SVG Version: 6.00 Build 0)  -->
<svg version="1.1" id="Layer_1" xmlns="http://www.w3.org/2000/svg" xmlns:xlink="http://www.w3.org/1999/xlink" x="0px" y="0px"
	 viewBox="0 0 296.4 294.2" style="enable-background:new 0 0 296.4 294.2;" xml:space="preserve">
<style type="text/css">
	.st0{fill:url(#SVGID_1_);}
	.st1{fill:url(#SVGID_00000039118387469092194470000000698403821387114683_);}
	.st2{fill:url(#SVGID_00000145025513880196080710000004579068301585964938_);}
</style>
<g>
	<radialGradient id="SVGID_1_" cx="112.7086" cy="244.5237" r="221.7358" gradientUnits="userSpaceOnUse">
		<stop  offset="9.693880e-02" style="stop-color:#FFD87A"/>
		<stop  offset="0.1426" style="stop-color:#FCCE77"/>
		<stop  offset="0.2263" style="stop-color:#F5B470"/>
		<stop  offset="0.3378" style="stop-color:#EB8D65"/>
		<stop  offset="0.449" style="stop-color:#E35F58"/>
		<stop  offset="0.6786" style="stop-color:#CC3694"/>
		<stop  offset="1" style="stop-color:#6568AF"/>
	</radialGradient>
	<path class="st0" d="M179.5,64.2h-64.2c-28.5,0-51.6,23.1-51.6,51.6V180c0,28.5,23.1,51.6,51.6,51.6h64.2
		c28.5,0,51.5-23.1,51.5-51.6v-64.2C231,87.3,207.9,64.2,179.5,64.2z M150.1,202.8c-30.1,0-54.5-24.4-54.5-54.5
		c0-30.1,24.4-54.5,54.5-54.5c30.1,0,54.5,24.4,54.5,54.5C204.7,178.4,180.3,202.8,150.1,202.8z M200.9,106.7
		c-7.7,0-13.9-6.2-13.9-13.9c0-7.7,6.2-13.9,13.9-13.9c7.7,0,13.9,6.2,13.9,13.9C214.8,100.5,208.6,106.7,200.9,106.7z"/>
	
		<radialGradient id="SVGID_00000143594530429596177740000009702053520057690043_" cx="136.5415" cy="186.162" r="86.9734" gradientUnits="userSpaceOnUse">
		<stop  offset="9.693880e-02" style="stop-color:#FFD87A"/>
		<stop  offset="0.1426" style="stop-color:#FCCE77"/>
		<stop  offset="0.2263" style="stop-color:#F5B470"/>
		<stop  offset="0.3378" style="stop-color:#EB8D65"/>
		<stop  offset="0.449" style="stop-color:#E35F58"/>
		<stop  offset="0.6786" style="stop-color:#CC3694"/>
		<stop  offset="1" style="stop-color:#6568AF"/>
	</radialGradient>
	<path style="fill:url(#SVGID_00000143594530429596177740000009702053520057690043_);" d="M150.1,115.4c-18.1,0-32.8,14.7-32.8,32.8
		c0,18.1,14.7,32.8,32.8,32.8c18.1,0,32.8-14.7,32.8-32.8C182.9,130.1,168.3,115.4,150.1,115.4z"/>
	
		<radialGradient id="SVGID_00000183215345504394769470000015873687436379004086_" cx="90.5062" cy="306.452" r="363.8398" gradientUnits="userSpaceOnUse">
		<stop  offset="9.693880e-02" style="stop-color:#FFD87A"/>
		<stop  offset="0.1426" style="stop-color:#FCCE77"/>
		<stop  offset="0.2263" style="stop-color:#F5B470"/>
		<stop  offset="0.3378" style="stop-color:#EB8D65"/>
		<stop  offset="0.449" style="stop-color:#E35F58"/>
		<stop  offset="0.6786" style="stop-color:#CC3694"/>
		<stop  offset="1" style="stop-color:#6568AF"/>
	</radialGradient>
	<path style="fill:url(#SVGID_00000183215345504394769470000015873687436379004086_);" d="M228.2,10.6H66.5
		c-31.1,0-56.4,25.3-56.4,56.4v161.8c0,31.1,25.2,56.4,56.4,56.4h161.8c31.1,0,56.4-25.3,56.4-56.4V67
		C284.6,35.9,259.4,10.6,228.2,10.6z M250.9,187.6c0,35.2-28.6,63.8-63.8,63.8h-79.5c-35.2,0-63.8-28.6-63.8-63.8v-79.5
		c0-35.2,28.6-63.8,63.8-63.8h79.5c35.2,0,63.8,28.6,63.8,63.8V187.6z"/>
</g>
</svg>
