<?xml version="1.0" encoding="utf-8"?>
<!-- Generator: Adobe Illustrator 27.7.0, SVG Export Plug-In . SVG Version: 6.00 Build 0)  -->
<svg version="1.1" id="레이어_1" xmlns="http://www.w3.org/2000/svg" xmlns:xlink="http://www.w3.org/1999/xlink" x="0px"
	 y="0px" viewBox="0 0 156 131.3" style="enable-background:new 0 0 156 131.3;" xml:space="preserve">
<style type="text/css">
	.st0{fill:#222222;}
</style>
<path class="st0" d="M138.4,117.7c-0.6-1.8-1.1-3.7-1.3-5.6c-0.3-3.1-0.6-6.2-0.5-9.3c0.1-4.6-0.8-9.1-1.3-13.7
	c-0.4-3.5-1-7-1.8-10.4c-0.8-3.6-1.9-7.2-3-10.7c-2.1-6.9-4.9-13.5-8.8-19.6c-2.8-4.3-6-8.2-9.9-11.6c-3.4-2.9-7-5.5-11.2-7
	c-0.1,0-0.2-0.3-0.3-0.5c8.6-0.5,13.6-6.5,13.1-11c-0.5,0.2-0.9,0.4-1.3,0.6c-2.6,1.5-5.4,2.3-8.3,2.4c-3.1,0.1-5.9-1-8.6-2.5
	c-0.3-0.2-0.6-0.9-0.4-1.3c0.7-1.9,0.9-3.8,0.8-5.8c-0.1-2.2-1.2-3.9-2.8-5.6c-1.1,1.1-2,2.3-3.1,3.2c-0.6,0.5-1.5,0.9-2.3,1
	c-3.8,0.2-7.7,0.2-11.5,0.9c-3.1,0.6-6,1.5-8.9,2.8c-4.1,1.9-7.5,4.8-10.3,8.3c-3.1,3.8-5.7,7.9-7.6,12.5c-0.6,1.3-1,2.6-1.7,3.9
	c-0.5,0.8-1.2,1.4-1.9,2.1c-3.8,4.4-7,9.2-9.7,14.4c-2.5,4.9-5,9.8-7.1,14.9c-2,4.9-3.6,10-5.4,15l-0.5,1.3v0
	c-0.9,0.4-1.7,0.8-2.6,1.2c-5,2.1-9.2,5.3-12.5,9.6c-0.7,1-1,2.2-0.7,3.6c0.4,2,1.9,3.1,3.3,4c2.8,1.8,5.9,3.2,8.8,4.9
	c0.4,0.2,0.7,0.8,0.8,1.1c0.1,2.8,0,5.6,0.1,8.4c0,0.4,0.1,0.8,0.1,1.1c0.1,0,0.2,0,0.3,0c0.1-0.2,0.2-0.4,0.3-0.6
	c0.3-1.5,0.5-3,0.8-4.6c0.6-3.3,1.2-6.7,2-10c1-4.2,2-8.4,3.2-12.6c1.2-4.4,2.4-8.9,4-13.2c2-5.4,4.3-10.7,6.6-16
	c2.2-5,5-9.6,8.7-13.5c2.3-2.4,5-4.6,7.7-6.5c6.4-4.3,13.4-7.5,20.9-9.3c2.2-0.5,4.5-0.8,6.7-1c2.2-0.2,4.4-0.2,6.5,0
	c2,0.1,4,0.4,5.9,0.8c2.3,0.5,4.8,1,6.9,2.1c5.6,3.2,10.1,7.8,13.9,13c3.8,5.2,6.9,10.8,9,16.9c1.4,4.2,2.6,8.4,3.7,12.7
	c0.6,2.3,0.9,4.6,1.3,7c0.3,2.1,0.5,4.2,0.8,6.3c0.3,2.1,0.8,4.3,0.9,6.4c0.2,3.1,0.2,6.2,0.3,9.3c0,1.7-0.1,3.5-0.3,5.2
	c-0.1,0.9-0.3,1.8-0.6,2.7c-0.8,2.2-1.8,4.3-1.6,6.7c0.2,2.4,1.2,4.1,3.5,4.6c2.1,0.4,3.9-0.6,5.5-1.9
	C138.9,123.6,139.3,120.3,138.4,117.7z"/>
<path class="st0" d="M48.8,67.9c-0.4-0.8-0.8-1.3-1.8-1.3c-0.9,0-1.7,0.2-2.2,0.9l0,0c0,0,0,0,0,0c0,0,0,0,0,0.1
	c-2,2.6-1.6,5.6-1.6,5.6c0.2,1.2,0.4,2.5,0.9,3.5c0.9,2,2.9,2.1,4.1,0.1c0.5-0.7,0.8-1.6,1.1-2.4C49.7,72.1,49.8,70,48.8,67.9z"/>
</svg>
