<?xml version="1.0" encoding="utf-8"?>
<!-- Generator: Adobe Illustrator 27.7.0, SVG Export Plug-In . SVG Version: 6.00 Build 0)  -->
<svg version="1.1" id="레이어_1" xmlns="http://www.w3.org/2000/svg" xmlns:xlink="http://www.w3.org/1999/xlink" x="0px"
	 y="0px" viewBox="0 0 30 30" style="enable-background:new 0 0 30 30;" xml:space="preserve">
<style type="text/css">
	.st0{fill:#FFFFFF;}
</style>
<g>
	<path class="st0" d="M22.3,1.8c-3.7,0-6.6,3-6.6,6.6c0,3.7,3,6.6,6.6,6.6c3.7,0,6.6-3,6.6-6.6C28.9,4.8,25.9,1.8,22.3,1.8z
		 M26.5,7.1l-4.6,4.6c-0.2,0.2-0.6,0.4-0.9,0.4c-0.3,0-0.6-0.1-0.9-0.4l-2.3-2.3c-0.5-0.5-0.5-1.3,0-1.8c0.5-0.5,1.3-0.5,1.8,0
		L21,9.1l3.7-3.7c0.5-0.5,1.3-0.5,1.8,0C27,5.8,27,6.6,26.5,7.1z"/>
	<path class="st0" d="M17.4,15.1c-1.6-1.2-2.8-3-3.3-5h-11l10,8.8L17.4,15.1z"/>
	<path class="st0" d="M19.2,16.1l-5.4,4.8c-0.2,0.2-0.4,0.2-0.6,0.2c-0.2,0-0.5-0.1-0.6-0.2L2,11.6v15.1l5.2-6.3
		c0.3-0.4,1-0.5,1.4-0.1c0.4,0.3,0.5,1,0.1,1.4l-5.3,6.5H23l-5.3-6.5c-0.3-0.4-0.3-1,0.1-1.4c0.4-0.3,1-0.3,1.4,0.1l5.2,6.3V16.4
		c-0.7,0.2-1.3,0.3-2.1,0.3C21.2,16.7,20.2,16.5,19.2,16.1z"/>
</g>
</svg>
